<?xml version="1.0" standalone="no"?>
<!DOCTYPE svg PUBLIC "-//W3C//DTD SVG 20010904//EN"
 "http://www.w3.org/TR/2001/REC-SVG-20010904/DTD/svg10.dtd">
<svg version="1.0" xmlns="http://www.w3.org/2000/svg"
 width="170.000000pt" height="170.000000pt" viewBox="0 0 170.000000 170.000000"
 preserveAspectRatio="xMidYMid meet">
<metadata>
Created by potrace 1.11, written by Peter Selinger 2001-2013
</metadata>
<g transform="translate(0.000000,170.000000) scale(0.100000,-0.100000)"
fill="#000000" stroke="none">
<path d="M495 1156 c-30 -31 -53 -71 -80 -140 -38 -95 -39 -96 -72 -96 -51 0
-87 40 -80 88 7 41 55 92 87 92 11 0 20 5 20 10 0 24 -73 -2 -117 -43 -32 -29
-32 -95 0 -124 29 -27 61 -43 86 -43 26 0 26 -6 -2 -55 l-23 -40 -74 -6 c-41
-3 -90 -13 -107 -22 -54 -28 -58 -92 -9 -116 41 -19 97 0 155 54 45 42 48 43
87 35 70 -16 129 -46 158 -81 24 -29 27 -39 22 -76 -6 -44 0 -53 22 -31 17 17
15 54 -5 95 -19 40 -91 91 -169 118 l-50 18 28 53 c22 40 37 55 63 64 19 6 58
27 85 46 28 19 50 30 50 25 0 -6 -10 -17 -22 -25 -17 -12 -18 -16 -7 -16 9 0
28 9 43 21 25 20 26 20 26 1 0 -11 7 -25 16 -33 12 -10 14 -25 9 -74 -12 -111
32 -169 127 -167 58 1 119 33 167 87 37 43 71 106 71 134 0 11 16 35 36 53 38
35 59 66 50 75 -3 3 -17 -9 -31 -26 -15 -17 -30 -31 -35 -31 -5 0 -11 18 -15
40 -20 118 -176 177 -302 115 -60 -30 -71 -41 -89 -92 -7 -22 -13 -29 -13 -18
0 11 6 31 14 45 18 31 19 102 3 118 -7 7 -28 12 -47 12 -28 0 -43 -9 -76 -44z
m105 -22 c0 -38 -27 -88 -71 -133 -38 -40 -96 -77 -106 -67 -8 8 66 141 104
185 41 48 73 55 73 15z m298 -14 c39 -24 75 -96 70 -143 -3 -30 -8 -34 -68
-55 -63 -22 -178 -27 -196 -10 -10 11 32 72 81 117 32 29 53 41 75 41 18 0 29
4 25 10 -3 6 -23 10 -44 10 -47 0 -94 -30 -139 -90 -19 -25 -38 -46 -43 -48
-15 -6 -21 46 -10 81 30 91 166 138 249 87z m38 -267 c-32 -60 -53 -85 -101
-117 -37 -25 -85 -33 -120 -20 -35 14 -54 84 -38 143 5 22 9 23 55 17 53 -7
158 8 198 29 34 18 36 5 6 -52z m-656 -92 c0 -15 -68 -70 -94 -77 -41 -10 -71
-1 -74 23 -3 22 16 38 67 54 36 10 101 11 101 0z"/>
<path d="M1394 965 c-10 -24 12 -42 34 -29 24 16 21 38 -6 42 -13 2 -25 -3
-28 -13z"/>
<path d="M1268 933 c-9 -10 -25 -37 -37 -60 -11 -23 -35 -63 -53 -90 -41 -59
-51 -36 -16 35 29 59 30 79 6 97 -39 27 -103 -2 -146 -66 -32 -47 -28 -122 6
-127 14 -2 33 5 46 17 21 20 22 20 34 1 13 -22 42 -26 59 -9 8 8 13 8 17 0 11
-17 111 -14 126 4 12 14 15 14 30 0 19 -18 51 -20 67 -4 8 8 13 8 17 0 4 -6
31 -11 61 -11 48 0 56 3 83 34 30 34 48 73 39 82 -3 3 -19 -18 -36 -45 -17
-28 -35 -51 -41 -51 -6 0 -3 12 7 26 16 24 15 29 -2 79 -20 61 -16 82 17 87
21 4 22 5 4 13 -27 12 -47 -4 -81 -66 -67 -121 -105 -166 -105 -124 0 9 11 42
25 75 31 73 31 80 2 80 -16 0 -23 -6 -24 -20 -2 -28 -65 -143 -81 -148 -10 -3
-9 4 4 23 17 26 17 29 -1 80 -20 60 -16 85 15 85 12 0 18 5 15 10 -10 16 -40
12 -57 -7z m-103 -43 c3 -5 1 -10 -5 -10 -5 0 -25 -24 -44 -52 -18 -29 -43
-61 -55 -72 -18 -16 -21 -17 -27 -3 -7 20 20 73 59 115 31 32 60 41 72 22z
m86 -133 c-26 -26 -36 37 -14 88 l18 40 3 -59 c2 -32 -2 -64 -7 -69z m240 0
c-26 -26 -36 37 -14 88 l18 40 3 -59 c2 -32 -2 -64 -7 -69z"/>
</g>
</svg>
